# xmcd
#
# Track frame offsets: 
#        150
#        5598
#        23144
#        43004
#        61042
#        81572
#        98424
#        115353
#        136584
#        153711
#        170217
#        192988
#        211909
#
# Disc length: 3109 seconds
#
# Revision: 1
# Processed by: cddbd v1.5.2PL0 Copyright (c) Steve Scherf et al.
# Submitted via: ExactAudioCopy v0.99pb4
#
DISCID=ab0c230d
DTITLE=Dwele - Some Kinda (Advance)
DYEAR=2005
DGENRE=R&B
TTITLE0=Intro
TTITLE1=Holla
TTITLE2=A Pimp's Dream
TTITLE3=Know Your Name
TTITLE4=My Lova
TTITLE5=Flapjacks
TTITLE6=Weekend Love
TTITLE7=Lay It Down
TTITLE8=I Think I Love You
TTITLE9=Keep On (feat. Slum Village)
TTITLE10=Some Kinda
TTITLE11=Wake The Baby (feat. Boney James)
TTITLE12=One Lovas
EXTD=
EXTT0=
EXTT1=
EXTT2=
EXTT3=
EXTT4=
EXTT5=
EXTT6=
EXTT7=
EXTT8=
EXTT9=
EXTT10=
EXTT11=
EXTT12=
PLAYORDER=
